<svg width="28" height="28" viewBox="0 0 28 28" fill="none" xmlns="http://www.w3.org/2000/svg">
<path d="M6 7C6 6.44772 6.44772 6 7 6H12C12.5523 6 13 6.44772 13 7V12C13 12.5523 12.5523 13 12 13H7C6.44772 13 6 12.5523 6 12V7Z" stroke="#262626"/>
<path d="M15 7C15 6.44772 15.4477 6 16 6H21C21.5523 6 22 6.44772 22 7V12C22 12.5523 21.5523 13 21 13H16C15.4477 13 15 12.5523 15 12V7Z" stroke="#262626"/>
<path d="M6 16C6 15.4477 6.44772 15 7 15H12C12.5523 15 13 15.4477 13 16V21C13 21.5523 12.5523 22 12 22H7C6.44772 22 6 21.5523 6 21V16Z" stroke="#262626"/>
<path d="M15 16C15 15.4477 15.4477 15 16 15H21C21.5523 15 22 15.4477 22 16V21C22 21.5523 21.5523 22 21 22H16C15.4477 22 15 21.5523 15 21V16Z" stroke="#262626"/>
</svg>
