<svg width="93" height="58" viewBox="0 0 93 58" fill="none" xmlns="http://www.w3.org/2000/svg">
<mask id="path-1-inside-1_86_1066" fill="white">
<path d="M0 0H93V57.9085H0V0Z"/>
</mask>
<path d="M93 0H91.9919V57.9085H93H94.0081V0H93Z" fill="#D1D1D1" mask="url(#path-1-inside-1_86_1066)"/>
<rect x="69.8858" y="24.2825" width="1.65184" height="14.8665" transform="rotate(45 69.8858 24.2825)" fill="#FFBD00"/>
<rect x="72.2221" y="26.6184" width="1.65184" height="14.8665" transform="rotate(45 72.2221 26.6184)" fill="#FF9400"/>
<rect x="74.558" y="28.9545" width="1.65184" height="14.8665" transform="rotate(45 74.558 28.9545)" fill="#FF6900"/>
<rect x="79.2304" y="33.6266" width="1.65184" height="14.8665" transform="rotate(45 79.2304 33.6266)" fill="#FF0000"/>
<rect x="76.8942" y="31.2905" width="1.65184" height="14.8665" transform="rotate(45 76.8942 31.2905)" fill="#FF3600"/>
<rect x="47.6935" y="23.1141" width="1.65184" height="14.8665" transform="rotate(-45 47.6935 23.1141)" fill="#FFBD00"/>
<rect x="50.0299" y="20.778" width="1.65184" height="14.8665" transform="rotate(-45 50.0299 20.778)" fill="#FF9400"/>
<rect x="52.3658" y="18.442" width="1.65184" height="14.8665" transform="rotate(-45 52.3658 18.442)" fill="#FF6900"/>
<rect x="57.0379" y="13.77" width="1.65184" height="14.8665" transform="rotate(-45 57.0379 13.77)" fill="#FF0000"/>
<rect x="54.702" y="16.106" width="1.65184" height="14.8665" transform="rotate(-45 54.702 16.106)" fill="#FF3600"/>
<rect x="46.4745" y="24.2318" width="1.65184" height="14.8665" transform="rotate(45 46.4745 24.2318)" fill="#FFBD00"/>
<rect x="48.8104" y="26.5678" width="1.65184" height="14.8665" transform="rotate(45 48.8104 26.5678)" fill="#FF9400"/>
<rect x="51.1467" y="28.904" width="1.65184" height="14.8665" transform="rotate(45 51.1467 28.904)" fill="#FF6900"/>
<rect x="55.8185" y="33.576" width="1.65184" height="14.8665" transform="rotate(45 55.8185 33.576)" fill="#FF0000"/>
<rect x="53.4828" y="31.24" width="1.65184" height="14.8665" transform="rotate(45 53.4828 31.24)" fill="#FF3600"/>
<rect x="24.333" y="23.1144" width="1.65184" height="14.8665" transform="rotate(-45 24.333 23.1144)" fill="#FFBD00"/>
<rect x="26.6689" y="20.7782" width="1.65184" height="14.8665" transform="rotate(-45 26.6689 20.7782)" fill="#FF9400"/>
<rect x="29.0047" y="18.4422" width="1.65184" height="14.8665" transform="rotate(-45 29.0047 18.4422)" fill="#FF6900"/>
<rect x="33.677" y="13.77" width="1.65184" height="14.8665" transform="rotate(-45 33.677 13.77)" fill="#FF0000"/>
<rect x="31.3407" y="16.1061" width="1.65184" height="14.8665" transform="rotate(-45 31.3407 16.1061)" fill="#FF3600"/>
<rect x="23.114" y="24.2317" width="1.65184" height="14.8665" transform="rotate(45 23.114 24.2317)" fill="#FFBD00"/>
<rect x="25.4499" y="26.5678" width="1.65184" height="14.8665" transform="rotate(45 25.4499 26.5678)" fill="#FF9400"/>
<rect x="27.7857" y="28.9036" width="1.65184" height="14.8665" transform="rotate(45 27.7857 28.9036)" fill="#FF6900"/>
<rect x="32.4579" y="33.5759" width="1.65184" height="14.8665" transform="rotate(45 32.4579 33.5759)" fill="#FF0000"/>
<rect x="30.1225" y="31.2397" width="1.65184" height="14.8665" transform="rotate(45 30.1225 31.2397)" fill="#FF3600"/>
</svg>
