<svg width="28" height="28" viewBox="0 0 28 28" fill="none" xmlns="http://www.w3.org/2000/svg">
<path d="M14.5 19.4704C14.5 19.7466 14.2762 19.9704 14 19.9704C13.7239 19.9704 13.5 19.7466 13.5 19.4704C13.5 19.1943 13.7239 18.9704 14 18.9704C14.2762 18.9704 14.5 19.1943 14.5 19.4704Z" fill="white"/>
<path fill-rule="evenodd" clip-rule="evenodd" d="M14 19.9704C14.2762 19.9704 14.5 19.7466 14.5 19.4704C14.5 19.1943 14.2762 18.9704 14 18.9704C13.7239 18.9704 13.5 19.1943 13.5 19.4704C13.5 19.7466 13.7239 19.9704 14 19.9704Z" fill="white"/>
<path d="M13.1259 6.04392C13.5069 5.35811 14.4932 5.35811 14.8742 6.04392L23.1747 20.9848C23.545 21.6513 23.063 22.4704 22.3005 22.4704H5.69956C4.93707 22.4704 4.45511 21.6513 4.8254 20.9848L13.1259 6.04392Z" fill="white"/>
<path d="M14 10.4704V16.9704M14.5 19.4704C14.5 19.7466 14.2762 19.9704 14 19.9704C13.7239 19.9704 13.5 19.7466 13.5 19.4704C13.5 19.1943 13.7239 18.9704 14 18.9704C14.2762 18.9704 14.5 19.1943 14.5 19.4704ZM5.69956 22.4704H22.3005C23.063 22.4704 23.545 21.6513 23.1747 20.9848L14.8742 6.04392C14.4932 5.35811 13.5069 5.35811 13.1259 6.04392L4.8254 20.9848C4.45511 21.6513 4.93707 22.4704 5.69956 22.4704Z" stroke="#D93417"/>
</svg>
