<svg width="28" height="28" viewBox="0 0 28 28" fill="none" xmlns="http://www.w3.org/2000/svg">
<path d="M22 12C22 13.0786 21.7561 14.1002 21.3203 15.0126C23.3797 15.1758 25 16.8987 25 19C25 21.2091 23.2091 23 21 23H8C5.23857 23 3 20.7614 3 18C3 15.2386 5.23857 13 8 13C8.0237 13 8.04733 13.0002 8.07095 13.0005C8.02419 12.6737 8 12.3397 8 12C8 8.134 11.134 5 15 5C18.866 5 22 8.134 22 12Z" fill="white"/>
<path d="M15 19V12M15 12L11.9874 15.0126M15 12L18 15M21.3203 15.0126C21.7561 14.1002 22 13.0786 22 12C22 8.134 18.866 5 15 5C11.134 5 8 8.134 8 12C8 12.3397 8.02419 12.6737 8.07095 13.0005C8.04733 13.0002 8.0237 13 8 13C5.23857 13 3 15.2386 3 18C3 20.7614 5.23857 23 8 23H21C23.2091 23 25 21.2091 25 19C25 16.8987 23.3797 15.1758 21.3203 15.0126Z" stroke="#262626"/>
</svg>
