<svg width="20" height="18" viewBox="0 0 20 18" fill="none" xmlns="http://www.w3.org/2000/svg">
<path d="M4.5 7.25H8L5 13.25H8.5M10 13.75V6.75M12 13.75V11.25M12 11.25V7.25H13.5C14.1667 7.25 15.5 7.65 15.5 9.25C15.5 10.85 14.1667 11.25 13.5 11.25H12ZM8.25263 1.25H2.74737C2.36634 1.25 2.01842 1.46654 1.85016 1.8084L1.10279 3.32688C1.03517 3.46427 1 3.61535 1 3.76848V16.25C1 16.8023 1.44772 17.25 2 17.25H18C18.5523 17.25 19 16.8023 19 16.25V4.53571C19 3.98343 18.5523 3.53571 18 3.53571H10.6224C10.2413 3.53571 9.89342 3.31918 9.72516 2.97731L9.14984 1.8084C8.98158 1.46654 8.63366 1.25 8.25263 1.25Z" stroke="#F2F2F2"/>
</svg>
